<svg width="647" height="429" fill="none" xmlns="http://www.w3.org/2000/svg"><g opacity=".5"><path fill-rule="evenodd" clip-rule="evenodd" d="M323.468 350.776c.018.045.037.091.064.145-.027-.045-.064-.227-.064-.145z" fill="#C5CFD6"/><path fill-rule="evenodd" clip-rule="evenodd" d="M323.511 350.845c0 .009.009.027.009.045 0-.045-.082-.182-.009-.045z" fill="#C5CFD6"/><path fill-rule="evenodd" clip-rule="evenodd" d="M323.194 350.074c.064.182.146.355.219.538-.037-.091-.073-.164-.11-.256.948 2.37.347.83-.109-.282z" fill="#C5CFD6"/><path fill-rule="evenodd" clip-rule="evenodd" d="M323.398 350.623l.109.255c.265.51-.109-.255-.109-.255z" fill="#C5CFD6"/><path fill-rule="evenodd" clip-rule="evenodd" d="M323.505 350.847c0-.009 0-.009-.01-.018.01.009.01.009.01.018z" fill="#C5CFD6"/><path fill-rule="evenodd" clip-rule="evenodd" d="M323.548 350.913c.054.109-.255-.42 0 0z" fill="#C5CFD6"/><path fill-rule="evenodd" clip-rule="evenodd" d="M323.509 350.847l-.018-.018c.009.009.009.018.018.018z" fill="#C5CFD6"/><rect width="647" height="428.296" rx="18.225" transform="matrix(-1 0 0 1 647 0)" fill="#ECF1F9"/><path fill-rule="evenodd" clip-rule="evenodd" d="M406.763 123.021l187.06 305.275h-374.12l187.06-305.275z" fill="#A3AFC2"/><path fill-rule="evenodd" clip-rule="evenodd" d="M213.893 204.792l165.372 223.504H48.52l165.373-223.504zM548.511 205.035c-33.972 0-61.511-27.539-61.511-61.51 0-33.972 27.539-61.51 61.511-61.51 33.971 0 61.51 27.538 61.51 61.51 0 33.971-27.539 61.51-61.51 61.51z" fill="#667A99"/></g></svg>
